<svg width="32" height="32" viewBox="0 0 32 32" fill="none" xmlns="http://www.w3.org/2000/svg">
<path d="M7.4 19L6 26L13 24.6M7.4 19L17.2 9.2M7.4 19L9.82813 20.4569C10.5319 20.8791 11.1209 21.4681 11.5431 22.1719L13 24.6M13 24.6L22.8 14.8M17.2 9.2L19.2787 7.12132C20.4503 5.94975 22.3497 5.94975 23.5213 7.12132L24.8787 8.47868C26.0503 9.65025 26.0503 11.5497 24.8787 12.7213L22.8 14.8M17.2 9.2L19.6281 10.6569C20.3319 11.0791 20.9209 11.6681 21.3431 12.3719L22.8 14.8" stroke="white" stroke-width="2"/>
<rect width="32" height="32" rx="16" stroke="white"/>
</svg>
