<svg width="21" height="22" viewBox="0 0 21 22" fill="none" xmlns="http://www.w3.org/2000/svg">
<rect width="20.4828" height="22" fill="#F1F2F6"/>
<path fill-rule="evenodd" clip-rule="evenodd" d="M12.375 2.75502V3.00939C15.0858 3.76453 17.0625 6.95434 17.0625 9.73695V15.0402H17.1225C17.6071 15.0402 18 15.433 18 15.9177C18 16.4023 17.6071 16.7952 17.1225 16.7952H3.87751C3.39287 16.7952 3 16.4023 3 15.9177C3 15.433 3.39287 15.0402 3.87751 15.0402H3.9375V9.73695C3.9375 6.95434 5.91423 3.76453 8.625 3.00939V2.75502C8.625 1.78575 9.46447 1 10.5 1C11.5355 1 12.375 1.78575 12.375 2.75502ZM12.375 18.245V17.3675H8.625V18.245C8.625 19.2142 9.46447 20 10.5 20C11.5355 20 12.375 19.2143 12.375 18.245Z" fill="#222222" fill-opacity="0.4"/>
</svg>
