<svg width="28" height="28" viewBox="0 0 28 28" fill="none" xmlns="http://www.w3.org/2000/svg">
<path fill-rule="evenodd" clip-rule="evenodd" d="M16.25 5.1245V5.43242C19.5029 6.34654 21.875 10.2079 21.875 13.5763V19.996H21.9378C22.5244 19.996 23 20.4716 23 21.0582C23 21.6449 22.5244 22.1205 21.9378 22.1205H6.06225C5.47558 22.1205 5 21.6449 5 21.0582C5 20.4716 5.47558 19.996 6.06225 19.996H6.125V13.5763C6.125 10.2079 8.49708 6.34654 11.75 5.43242V5.1245C11.75 3.95117 12.7574 3 14 3C15.2426 3 16.25 3.95117 16.25 5.1245ZM16.25 23.8755V22.8133H11.75V23.8755C11.75 25.0488 12.7574 26 14 26C15.2426 26 16.25 25.0488 16.25 23.8755Z" fill="#768494"/>
</svg>
