<svg width="28" height="29" viewBox="0 0 28 29" fill="none" xmlns="http://www.w3.org/2000/svg">
<path d="M21.1544 14.6829L22.2451 15.7737C24.009 17.5376 25 19.93 25 22.4246C25 24.7858 23.0858 26.7 20.7246 26.7H7.27539C4.91416 26.7 3 24.7858 3 22.4246C3 19.93 3.99097 17.5376 5.75491 15.7737L6.84565 14.6829C7.49896 14.0296 8.55818 14.0296 9.2115 14.6829C10.4664 15.9378 12.1685 16.6429 13.9432 16.6429H14.0568C15.8315 16.6429 17.5336 15.9378 18.7885 14.6829C19.4418 14.0296 20.501 14.0296 21.1544 14.6829Z" fill="#7D7D7D"/>
<ellipse cx="13.9999" cy="8.73333" rx="5.86667" ry="6.23333" fill="#7D7D7D"/>
</svg>
