<svg width="32" height="32" viewBox="0 0 32 32" fill="none" xmlns="http://www.w3.org/2000/svg">
<g clip-path="url(#clip0)">
<rect width="32" height="32" rx="16" fill="white" fill-opacity="0.1"/>
<path d="M23.6544 20.1829L24.7451 21.2737C26.509 23.0376 27.5 25.43 27.5 27.9246C27.5 30.2858 25.5858 32.2 23.2246 32.2H9.77539C7.41416 32.2 5.5 30.2858 5.5 27.9246C5.5 25.43 6.49097 23.0376 8.25491 21.2737L9.34565 20.1829C9.99896 19.5296 11.0582 19.5296 11.7115 20.1829C12.9664 21.4378 14.6685 22.1429 16.4432 22.1429H16.5568C18.3315 22.1429 20.0336 21.4378 21.2885 20.1829C21.9418 19.5296 23.001 19.5296 23.6544 20.1829Z" fill="#222222" fill-opacity="0.4"/>
<ellipse cx="16.4995" cy="14.2333" rx="5.86667" ry="6.23333" fill="#222222" fill-opacity="0.4"/>
</g>
<defs>
<clipPath id="clip0">
<rect width="32" height="32" rx="16" fill="white"/>
</clipPath>
</defs>
</svg>
