<svg width="28" height="28" viewBox="0 0 28 28" fill="none" xmlns="http://www.w3.org/2000/svg">
<g opacity="0.5">
<path d="M5 11H23C24.1046 11 25 10.1046 25 9C25 7.89543 24.1046 7 23 7H5C3.89543 7 3 7.89543 3 9C3 10.1046 3.89543 11 5 11Z" fill="#222222"/>
<path d="M15 15.5C15 14.6716 15.6716 14 16.5 14H23.5C24.3284 14 25 14.6716 25 15.5C25 16.3284 24.3284 17 23.5 17H16.5C15.6716 17 15 16.3284 15 15.5Z" fill="#222222"/>
<path d="M13 15.5C13 16.3284 12.3284 17 11.5 17H4.5C3.67157 17 3 16.3284 3 15.5C3 14.6716 3.67157 14 4.5 14H11.5C12.3284 14 13 14.6716 13 15.5Z" fill="#222222"/>
<path d="M24 20H20C19.4477 20 19 20.4477 19 21C19 21.5523 19.4477 22 20 22H24C24.5523 22 25 21.5523 25 21C25 20.4477 24.5523 20 24 20Z" fill="#222222"/>
<path d="M17 21C17 21.5523 16.5523 22 16 22H12C11.4477 22 11 21.5523 11 21C11 20.4477 11.4477 20 12 20H16C16.5523 20 17 20.4477 17 21Z" fill="#222222"/>
<path d="M9 21C9 21.5523 8.55228 22 8 22H4C3.44772 22 3 21.5523 3 21C3 20.4477 3.44771 20 4 20H8C8.55228 20 9 20.4477 9 21Z" fill="#222222"/>
</g>
</svg>
