<svg width="22" height="22" viewBox="0 0 22 22" fill="none" xmlns="http://www.w3.org/2000/svg">
<rect width="22" height="22" fill="#F1F2F6"/>
<path d="M1 3V4.6H18.7692V17.4H7.46154V19H22V17.4H20.3846V3H1ZM4.23238 5.4C3.3763 5.40295 2.5561 5.74099 1.9506 6.34042C1.3451 6.93985 1.00341 7.75207 1 8.6C1 10.3592 2.45708 11.8 4.23238 11.8C5.08804 11.7966 5.90766 11.4584 6.51255 10.8589C7.11744 10.2595 7.45856 9.44751 7.46154 8.6C7.46154 6.8424 6.00608 5.4 4.23238 5.4ZM9.07692 6.2V7.8H13.1154V6.2H9.07692ZM14.7308 6.2V7.8H17.1538V6.2H14.7308ZM4.23238 7C5.13215 7 5.84615 7.7064 5.84615 8.6C5.84615 9.496 5.13296 10.2 4.23238 10.2C3.32777 10.2 2.61538 9.496 2.61538 8.6C2.61538 7.7064 3.32858 7 4.23238 7ZM9.07692 9.4V11H17.1538V9.4H9.07692ZM1 12.6V19H2.61538V14.2H5.03846V19H6.65385V14.7264L8.32092 15.6C8.79342 15.848 9.36123 15.8472 9.83292 15.6V15.6016L12.6841 14.108L11.9305 12.692L9.07854 14.1856L6.57792 12.8784C6.22893 12.6958 5.84024 12.6002 5.44554 12.6H1Z" fill="#222222" fill-opacity="0.4"/>
</svg>
