<svg width="22" height="22" viewBox="0 0 22 22" fill="none" xmlns="http://www.w3.org/2000/svg">
<rect width="22" height="22" fill="#F1F2F6"/>
<path d="M5 4H17V5H5V4Z" fill="#222222" fill-opacity="0.4"/>
<path d="M17.3752 5.5625H5.4163C5.25685 5.56035 5.09951 5.52754 4.95377 5.46604C4.80803 5.40453 4.6769 5.31562 4.56831 5.20465C4.45971 5.09368 4.37588 4.96296 4.32189 4.82037C4.2679 4.67778 4.24486 4.52628 4.25416 4.375C4.25338 4.07394 4.37296 3.78384 4.58871 3.56338C4.80446 3.34293 5.10027 3.20857 5.4163 3.1875H17.3752C17.5409 3.1875 17.6998 3.12494 17.817 3.01359C17.9342 2.90224 18 2.75122 18 2.59375C18 2.43628 17.9342 2.28526 17.817 2.17391C17.6998 2.06256 17.5409 2 17.3752 2H5.4163C4.76874 2.02155 4.1553 2.28126 3.70535 2.72434C3.25541 3.16743 3.00414 3.75925 3.00453 4.375C2.99849 4.47189 2.99849 4.56904 3.00453 4.66594C2.99851 4.71327 2.99851 4.76111 3.00453 4.80844V18.625C3.00414 19.2407 3.25541 19.8326 3.70535 20.2757C4.1553 20.7187 4.76874 20.9784 5.4163 21H17.3752C17.5409 21 17.6998 20.9374 17.817 20.8261C17.9342 20.7147 18 20.5637 18 20.4062V6.30469V6.25125V6.19781C18.0004 6.03628 17.936 5.88068 17.8199 5.76266C17.7038 5.64464 17.5448 5.57307 17.3752 5.5625Z" fill="#222222" fill-opacity="0.4"/>
</svg>
