<svg width="35" height="34" viewBox="0 0 35 34" fill="none" xmlns="http://www.w3.org/2000/svg">
<path d="M7.35417 26.0333L6.51236 25.1093L6.87016 24.7833H7.35417V26.0333ZM3.16735 29.8475L4.00915 30.7716L3.16735 29.8475ZM4.25 15V26.0333H1.75V15H4.25ZM20.75 24.0333V15H23.25V24.0333H20.75ZM20 14.25H5V11.75H20V14.25ZM4.25 26.0333V29.7736H1.75V26.0333H4.25ZM7.35417 24.7833H20V27.2833H7.35417V24.7833ZM2.32553 28.9235L6.51236 25.1093L8.19598 26.9574L4.00915 30.7716L2.32553 28.9235ZM4.25 29.7736C4.25 28.7747 3.06398 28.2508 2.32553 28.9235L4.00915 30.7716C3.14228 31.5613 1.75 30.9463 1.75 29.7736H4.25ZM20.75 15C20.75 14.5858 20.4142 14.25 20 14.25V11.75C21.7949 11.75 23.25 13.2051 23.25 15H20.75ZM23.25 24.0333C23.25 25.8283 21.7949 27.2833 20 27.2833V24.7833C20.4142 24.7833 20.75 24.4475 20.75 24.0333H23.25ZM1.75 15C1.75 13.2051 3.20507 11.75 5 11.75V14.25C4.58579 14.25 4.25 14.5858 4.25 15H1.75Z" fill="white"/>
<path d="M23.6458 21.0333L25.3295 19.1852L24.6139 18.5333H23.6458V21.0333ZM27.8327 24.8475L26.149 26.6956L27.8327 24.8475ZM25.5 10V21.0333H30.5V10H25.5ZM11.5 19.0333V10H6.5V19.0333H11.5ZM11 10.5H26V5.5H11V10.5ZM25.5 21.0333V24.7736H30.5V21.0333H25.5ZM23.6458 18.5333H11V23.5333H23.6458V18.5333ZM29.5163 22.9995L25.3295 19.1852L21.9622 22.8814L26.149 26.6956L29.5163 22.9995ZM25.5 24.7736C25.5 22.6889 27.9752 21.5955 29.5163 22.9995L26.149 26.6956C27.8186 28.2166 30.5 27.0321 30.5 24.7736H25.5ZM11.5 10C11.5 10.2761 11.2761 10.5 11 10.5V5.5C8.51472 5.5 6.5 7.51472 6.5 10H11.5ZM6.5 19.0333C6.5 21.5186 8.51472 23.5333 11 23.5333V18.5333C11.2761 18.5333 11.5 18.7572 11.5 19.0333H6.5ZM30.5 10C30.5 7.51472 28.4853 5.5 26 5.5V10.5C25.7239 10.5 25.5 10.2761 25.5 10H30.5Z" fill="#6200EE"/>
<path d="M28 21.0333V10C28 8.89543 27.1046 8 26 8H11C9.89543 8 9 8.89543 9 10V19.0333C9 20.1379 9.89543 21.0333 11 21.0333H23.6458L27.8327 24.8475C27.8969 24.906 28 24.8605 28 24.7736V21.0333Z" fill="#6200EE"/>
<path d="M23.6458 21.0333L24.4876 20.1093L24.1298 19.7833H23.6458V21.0333ZM27.8327 24.8475L28.6745 23.9235L28.6745 23.9235L27.8327 24.8475ZM26.75 10V21.0333H29.25V10H26.75ZM10.25 19.0333V10H7.75V19.0333H10.25ZM11 9.25H26V6.75H11V9.25ZM26.75 21.0333V24.7736H29.25V21.0333H26.75ZM23.6458 19.7833H11V22.2833H23.6458V19.7833ZM28.6745 23.9235L24.4876 20.1093L22.804 21.9574L26.9908 25.7716L28.6745 23.9235ZM26.75 24.7736C26.75 23.7747 27.936 23.2508 28.6745 23.9235L26.9908 25.7716C27.8577 26.5613 29.25 25.9463 29.25 24.7736H26.75ZM10.25 10C10.25 9.58579 10.5858 9.25 11 9.25V6.75C9.20507 6.75 7.75 8.20508 7.75 10H10.25ZM7.75 19.0333C7.75 20.8283 9.20507 22.2833 11 22.2833V19.7833C10.5858 19.7833 10.25 19.4475 10.25 19.0333H7.75ZM29.25 10C29.25 8.20507 27.7949 6.75 26 6.75V9.25C26.4142 9.25 26.75 9.58579 26.75 10H29.25Z" fill="white"/>
<circle cx="27.5" cy="7.5" r="6.25" fill="white" stroke="#6200EE" stroke-width="1.5"/>
</svg>
