<svg width="32" height="32" viewBox="0 0 32 32" fill="none" xmlns="http://www.w3.org/2000/svg">
<g opacity="0.5">
<path d="M11.3472 21.431L15.7871 16.991L16.0626 16.7156C17.1365 15.6416 18.8777 15.6416 19.9517 16.7156V16.7156C21.0256 17.7895 21.0256 19.5307 19.9517 20.6047L19.6762 20.8801L15.7575 24.7989C14.847 25.7094 13.6459 26.2716 12.3635 26.3875V26.3875C8.94497 26.6965 6.08171 23.8332 6.39069 20.4147V20.4147C6.5066 19.1323 7.06878 17.9312 7.97928 17.0207L15.672 9.32797L17.1109 7.88909C19.2588 5.7412 22.7412 5.7412 24.8891 7.88909V7.88909C27.037 10.037 27.037 13.5194 24.8891 15.6673L24.7822 15.7742" stroke="#6200EE" stroke-width="2" stroke-linecap="round"/>
</g>
</svg>
