<svg width="150" height="150" viewBox="0 0 150 150" fill="none" xmlns="http://www.w3.org/2000/svg">
<path d="M150 75C150 116.421 116.421 150 75 150C33.5792 150 0 116.421 0 75C0 33.5792 33.5792 0 75 0C116.421 0 150 33.5792 150 75Z" fill="#FFCC4D"/>
<path d="M75.0003 87.5001C59.9045 87.5001 49.8878 85.7417 37.5003 83.3334C34.6712 82.7876 29.167 83.3334 29.167 91.6667C29.167 108.333 48.3128 129.167 75.0003 129.167C101.684 129.167 120.834 108.333 120.834 91.6667C120.834 83.3334 115.329 82.7834 112.5 83.3334C100.113 85.7417 90.0962 87.5001 75.0003 87.5001Z" fill="#664500"/>
<path d="M37.5 91.6667C37.5 91.6667 50 95.8333 75 95.8333C100 95.8333 112.5 91.6667 112.5 91.6667C112.5 91.6667 104.167 108.333 75 108.333C45.8333 108.333 37.5 91.6667 37.5 91.6667Z" fill="white"/>
<path d="M65.3412 18.3875L46.4162 21.725L36.6662 4.00417C35.5912 2.05 33.3829 1.00417 31.1995 1.3875C29.0037 1.775 27.2954 3.51667 26.9537 5.71667L23.8495 25.7042L4.92455 29.0417C2.69538 29.4333 0.974547 31.2292 0.67038 33.475C0.366213 35.7208 1.54955 37.9042 3.59955 38.8792L20.5579 46.9292L17.4412 66.9792C17.0954 69.2125 18.2287 71.4125 20.2454 72.4333C20.9912 72.8083 21.7912 72.9875 22.587 72.9875C23.9495 72.9875 25.2954 72.4542 26.2995 71.4375L40.9329 56.6L59.7579 65.5375C61.7995 66.5042 64.2329 66.05 65.7829 64.4042C67.3329 62.7583 67.6412 60.3042 66.5537 58.325L56.7704 40.5417L69.9579 27.175C71.5496 25.5625 71.912 23.1042 70.862 21.0958C69.8037 19.0875 67.5579 18 65.3412 18.3875V18.3875ZM84.6579 18.3875L103.583 21.725L113.333 4.00417C114.408 2.05 116.616 1.00417 118.8 1.3875C120.991 1.775 122.7 3.51667 123.041 5.71667L126.145 25.7042L145.07 29.0417C147.304 29.4333 149.025 31.225 149.325 33.4708C149.625 35.7167 148.445 37.9 146.395 38.875L129.437 46.925L132.554 66.975C132.9 69.2083 131.766 71.4083 129.75 72.4292C129.004 72.8042 128.204 72.9833 127.408 72.9833C126.045 72.9833 124.7 72.45 123.695 71.4333L109.062 56.5958L90.237 65.5333C88.1954 66.5 85.762 66.0458 84.212 64.4C82.662 62.7542 82.3537 60.3 83.4412 58.3208L93.2245 40.5417L80.037 27.175C78.4454 25.5625 78.0829 23.1042 79.1329 21.0958C80.1954 19.0875 82.4412 18 84.6579 18.3875V18.3875Z" fill="#E95F28"/>
</svg>
