<svg width="50" height="50" viewBox="0 0 50 50" fill="none" xmlns="http://www.w3.org/2000/svg">
<path d="M25 0C11.1944 0 0 11.1944 0 25C0 33.4042 4.16111 40.8222 10.5194 45.3542C10.6639 36.4125 7.4125 26.3889 1.95 26.3889C1.30556 26.3889 0.783333 26.4806 0.348611 26.6431C0.769444 25.5917 1.68194 25 3.38889 25C9.31944 25 12.6472 36.8139 11.85 46.2333C15.675 48.6069 20.1694 50 25 50C29.8319 50 34.3278 48.6056 38.1528 46.2319C37.3514 36.7778 40.6778 25 46.6125 25C48.325 25 49.2403 25.5917 49.6569 26.6431C49.2208 26.4806 48.6972 26.3889 48.05 26.3889C42.5806 26.3889 39.3306 36.3875 39.4806 45.3542C45.8403 40.8222 50 33.4042 50 25C50 11.1944 38.8069 0 25 0Z" fill="#FFCC4D"/>
<path d="M25 0C11.1944 0 0 11.1944 0 25C0 26.6556 0.170833 28.2722 0.477778 29.8389C0.802778 28.6403 1.31111 27.4903 1.94722 26.3889C1.30417 26.3889 0.783333 26.4806 0.35 26.6431C0.716667 25.7278 1.49167 25.1875 2.80556 25.0569C6.96111 19.2528 15.3292 15.2778 25 15.2778C34.6722 15.2778 43.0389 19.2514 47.1944 25.0556C48.5139 25.1861 49.2917 25.725 49.6556 26.6431C49.2222 26.4806 48.6986 26.3889 48.0542 26.3889C48.6903 27.4903 49.1972 28.6403 49.5236 29.8389C49.8306 28.2722 50 26.6556 50 25C50 11.1944 38.8069 0 25 0V0Z" fill="#BDDDF4"/>
<path d="M10.205 16.5417C8.89111 20.9528 10.3536 25.282 13.4731 26.2111C16.5925 27.1417 20.1869 24.3195 21.4994 19.9083C22.8133 15.4986 21.3522 11.1681 18.2342 10.2389C15.1147 9.30973 11.5203 12.132 10.205 16.5417ZM39.7953 16.5417C41.1092 20.9528 39.6467 25.282 36.5286 26.2111C33.4092 27.1417 29.8147 24.3195 28.5022 19.9083C27.1883 15.4986 28.6508 11.1681 31.7675 10.2389C34.8856 9.30973 38.48 12.132 39.7953 16.5417Z" fill="#F5F8FA"/>
<path d="M25.0001 25C21.1709 25 18.0557 28.1153 18.0557 31.9444V40.2778C18.0557 44.1069 21.1709 47.2222 25.0001 47.2222C28.8293 47.2222 31.9446 44.1069 31.9446 40.2778V31.9444C31.9446 28.1153 28.8293 25 25.0001 25Z" fill="#664500"/>
<path d="M1.9499 26.3889C1.30545 26.3889 0.78323 26.4806 0.348508 26.6431C0.448508 26.3944 0.580453 26.1764 0.738786 25.9819C-1.84733 29.1639 3.95684 39.6389 1.13601 50H10.1082C11.761 40.3333 8.39295 26.3889 1.9499 26.3889ZM49.6568 26.6431C49.2207 26.4806 48.6971 26.3889 48.0499 26.3889C41.6041 26.3889 38.2374 40.2806 39.893 50H48.8652C46.218 40.2153 51.1652 30.4319 49.6568 26.6431Z" fill="#FCAB40"/>
</svg>
