<svg width="150" height="150" viewBox="0 0 150 150" fill="none" xmlns="http://www.w3.org/2000/svg">
<path d="M150 75C150 116.421 116.421 150 75 150C33.5833 150 0 116.421 0 75C0 33.5833 33.5833 0 75 0C116.421 0 150 33.5833 150 75Z" fill="#FFCB4C"/>
<path d="M50.7342 76.7334C56.8255 76.7334 61.7634 69.82 61.7634 61.2918C61.7634 52.7636 56.8255 45.8501 50.7342 45.8501C44.643 45.8501 39.7051 52.7636 39.7051 61.2918C39.7051 69.82 44.643 76.7334 50.7342 76.7334Z" fill="#65471B"/>
<path d="M103.675 88.2333C119.512 88.2333 132.35 75.395 132.35 59.5583C132.35 43.7215 119.512 30.8833 103.675 30.8833C87.8382 30.8833 75 43.7215 75 59.5583C75 75.395 87.8382 88.2333 103.675 88.2333Z" fill="#F4F7F9"/>
<path d="M61.7708 41.4416C60.4292 41.4416 59.1042 40.8332 58.2375 39.6791C54.1083 34.1749 49.7875 31.2249 45.3917 30.9124C39.6 30.5166 34.8792 34.8582 34 35.7374C32.275 37.4624 29.4833 37.4624 27.7625 35.7374C26.0375 34.0124 26.0375 31.2207 27.7625 29.4999C29.6667 27.5957 36.6333 21.4332 46.0167 22.1124C53.0792 22.6124 59.5625 26.7416 65.2958 34.3832C66.7583 36.3332 66.3625 39.0999 64.4167 40.5582C63.6167 41.1541 62.6875 41.4416 61.7708 41.4416Z" fill="#65471B"/>
<path d="M136.765 150C134.328 150 132.353 148.025 132.353 145.588V61.7667C132.353 59.3292 134.328 57.3542 136.765 57.3542C139.203 57.3542 141.178 59.3292 141.178 61.7667V145.592C141.173 148.025 139.203 150 136.765 150Z" fill="#292F33"/>
<path d="M136.768 52.9418C136.543 52.9418 136.331 52.9918 136.11 53.0084C133.06 37.8918 119.681 26.4709 103.676 26.4709C85.4305 26.4709 70.5889 41.3126 70.5889 59.5584C70.5889 77.8043 85.4305 92.646 103.676 92.646C118.126 92.646 130.41 83.3209 134.91 70.3834C135.51 70.5126 136.126 70.5876 136.764 70.5876C141.639 70.5876 145.589 66.6376 145.589 61.7626C145.589 56.8918 141.639 52.9418 136.768 52.9418V52.9418ZM103.676 83.8251C90.2972 83.8251 79.4139 72.9418 79.4139 59.5584C79.4139 46.1751 90.3014 35.2918 103.676 35.2918C117.056 35.2918 127.943 46.1751 127.943 59.5584C127.943 72.9418 117.056 83.8251 103.676 83.8251Z" fill="#67757F"/>
<path d="M88.2293 119.117C87.5668 119.117 86.8918 118.967 86.2585 118.65C78.6793 114.858 71.3126 114.858 63.7335 118.65C61.5501 119.738 58.9002 118.858 57.8127 116.675C56.721 114.496 57.6043 111.846 59.7877 110.754C69.8752 105.713 80.1085 105.713 90.2043 110.754C92.3835 111.846 93.2668 114.496 92.1793 116.675C91.4085 118.225 89.8502 119.117 88.2293 119.117V119.117Z" fill="#65471B"/>
<path d="M116.869 39.2125C113.069 36.7417 108.544 35.2959 103.673 35.2959C90.2729 35.2959 79.4062 46.1584 79.4062 59.5625C79.4062 64.4334 80.8562 68.9584 83.3229 72.7584L116.869 39.2125ZM93.3187 81.4792C96.4646 82.9667 99.9646 83.825 103.673 83.825C117.073 83.825 127.94 72.9625 127.94 59.5584C127.94 55.85 127.081 52.3459 125.594 49.2042L93.3187 81.4792Z" fill="#BDDDF4"/>
</svg>
