<svg width="32" height="32" viewBox="0 0 32 32" fill="none" xmlns="http://www.w3.org/2000/svg">
<path d="M20 22V20.75H19.3992L19.0239 21.2191L20 22ZM13 22L14.0719 21.3569L13.7077 20.75H13V22ZM16.0898 26.8877L17.0659 27.6686L16.0898 26.8877ZM15.926 26.8767L16.9979 26.2336L15.926 26.8767ZM26.75 8V20H29.25V8H26.75ZM5.25 20V8H2.75V20H5.25ZM6 7.25H26V4.75H6V7.25ZM26 20.75H20V23.25H26V20.75ZM19.0239 21.2191L15.1138 26.1068L17.0659 27.6686L20.9761 22.7809L19.0239 21.2191ZM13 20.75H6V23.25H13V20.75ZM16.9979 26.2336L14.0719 21.3569L11.9281 22.6431L14.8541 27.5198L16.9979 26.2336ZM5.25 8C5.25 7.58579 5.58579 7.25 6 7.25V4.75C4.20507 4.75 2.75 6.20507 2.75 8H5.25ZM2.75 20C2.75 21.7949 4.20507 23.25 6 23.25V20.75C5.58579 20.75 5.25 20.4142 5.25 20H2.75ZM26.75 20C26.75 20.4142 26.4142 20.75 26 20.75V23.25C27.7949 23.25 29.25 21.7949 29.25 20H26.75ZM15.1138 26.1068C15.6144 25.481 16.5856 25.5464 16.9979 26.2336L14.8541 27.5198C15.3382 28.3265 16.4782 28.4032 17.0659 27.6686L15.1138 26.1068ZM29.25 8C29.25 6.20507 27.7949 4.75 26 4.75V7.25C26.4142 7.25 26.75 7.58579 26.75 8H29.25Z" fill="white"/>
</svg>
