<svg width="28" height="28" viewBox="0 0 28 28" fill="none" xmlns="http://www.w3.org/2000/svg">
<path fill-rule="evenodd" clip-rule="evenodd" d="M27 14C27 21.1797 21.1797 27 14 27C6.8203 27 1 21.1797 1 14C1 6.8203 6.8203 1 14 1C21.1797 1 27 6.8203 27 14ZM11.1637 7.59866C12.7543 5.9389 15.4073 5.93889 16.9979 7.59866C18.3778 9.03852 18.5007 11.2698 17.2873 12.8525L15.5948 15.0601C15.2614 15.4949 15.0808 16.0274 15.0808 16.5753V18H13.0808V16.5753C13.0808 15.5875 13.4065 14.6272 14.0076 13.8432L15.7 11.6357C16.3128 10.8364 16.2507 9.7096 15.5539 8.98247C14.7507 8.14429 13.4109 8.14429 12.6076 8.98247L12.5767 9.01475C12.2909 9.31303 12.1002 9.68955 12.0288 10.0965L12.0018 10.2507C12.0006 10.2575 12 10.2644 12 10.2713V11H10V10.2713C10 10.1486 10.0106 10.0262 10.0318 9.90535L10.0589 9.75115C10.1987 8.95357 10.5725 8.21557 11.1327 7.63094L11.1637 7.59866ZM15 21.4396V19H13V21.4396H15Z" fill="#768494"/>
</svg>
