<svg width="22" height="23" viewBox="0 0 22 23" fill="none" xmlns="http://www.w3.org/2000/svg">
<path d="M14.4825 1.5H7.51745C6.71492 1.5 5.94584 1.82155 5.38213 2.39277L1.86468 5.95713C1.31064 6.51855 1 7.27558 1 8.06435V14.9356C1 15.7244 1.31064 16.4815 1.86468 17.0429L5.38213 20.6072C5.94584 21.1785 6.71491 21.5 7.51745 21.5H14.4825C15.2851 21.5 16.0542 21.1784 16.6179 20.6072L20.1353 17.0429C20.6894 16.4815 21 15.7244 21 14.9356V8.06435C21 7.27558 20.6894 6.51855 20.1353 5.95713L16.6179 2.39277C16.0542 1.82155 15.2851 1.5 14.4825 1.5Z" stroke="#FC3F3F" stroke-width="2"/>
<path d="M11 8.5V18.5" stroke="#FC3F3F" stroke-width="2" stroke-linecap="round"/>
<path d="M11.5 5C11.5 5.27614 11.2761 5.5 11 5.5C10.7239 5.5 10.5 5.27614 10.5 5C10.5 4.72386 10.7239 4.5 11 4.5C11.2761 4.5 11.5 4.72386 11.5 5Z" fill="#FC3F3F" stroke="#FC3F3F" stroke-width="2" stroke-linecap="round"/>
</svg>
