<svg width="28" height="28" viewBox="0 0 28 28" fill="none" xmlns="http://www.w3.org/2000/svg">
<path fill-rule="evenodd" clip-rule="evenodd" d="M14.0178 1C12.1569 1 10.6483 2.50859 10.6483 4.36954C10.6483 4.71773 10.366 5 10.0178 5H4.00006C3.44778 5 3.00006 5.44772 3.00006 6V26C3.00006 26.5523 3.44778 27 4.00006 27H24.0001C24.5523 27 25.0001 26.5523 25.0001 26V6C25.0001 5.44772 24.5523 5 24.0001 5H18.0178C17.6697 5 17.3874 4.71773 17.3874 4.36954C17.3874 2.50859 15.8788 1 14.0178 1ZM12.5241 4.35865C12.5241 3.54644 13.1825 2.88802 13.9948 2.88802H14.0405C14.8527 2.88802 15.5111 3.54644 15.5111 4.35865C15.5111 5.17085 14.8527 5.82927 14.0405 5.82927H13.9948C13.1825 5.82927 12.5241 5.17085 12.5241 4.35865ZM8.99994 9.99999C8.44766 9.99999 7.99994 10.4477 7.99994 11V11.145C7.99994 11.6973 8.44766 12.145 8.99994 12.145H17.9999C18.5522 12.145 18.9999 11.6973 18.9999 11.145V11C18.9999 10.4477 18.5522 9.99999 17.9999 9.99999H8.99994ZM8.99994 15.145C8.44766 15.145 7.99994 15.5928 7.99994 16.145V16.2901C7.99994 16.8424 8.44766 17.2901 8.99994 17.2901H17.9999C18.5522 17.2901 18.9999 16.8424 18.9999 16.2901V16.145C18.9999 15.5928 18.5522 15.145 17.9999 15.145H8.99994ZM7.99994 21.2901C7.99994 20.7378 8.44766 20.2901 8.99994 20.2901H16.0085C16.5607 20.2901 17.0085 20.7378 17.0085 21.2901V21.4351C17.0085 21.9874 16.5607 22.4351 16.0085 22.4351H8.99994C8.44766 22.4351 7.99994 21.9874 7.99994 21.4351V21.2901Z" fill="#02182F"/>
</svg>
