<svg width="22" height="22" viewBox="0 0 22 22" fill="none" xmlns="http://www.w3.org/2000/svg">
<path fill-rule="evenodd" clip-rule="evenodd" d="M20 11C20 15.9706 15.9706 20 11 20C6.02944 20 2 15.9706 2 11C2 6.02944 6.02944 2 11 2C15.9706 2 20 6.02944 20 11ZM8.74801 7.18472C9.88114 6.00233 11.7711 6.00233 12.9042 7.18472C13.8873 8.21047 13.9748 9.80002 13.1104 10.9275L12.0648 12.2913C11.91 12.4932 11.8261 12.7405 11.8261 12.9949V13.875H9.82613V12.9949C9.82613 12.3005 10.0551 11.6255 10.4776 11.0745L11.5232 9.71065C11.787 9.36659 11.7602 8.88154 11.4603 8.56853C11.1145 8.20772 10.5378 8.20772 10.192 8.56853L10.1729 8.58848C10.0487 8.71803 9.9659 8.88156 9.93492 9.0583L9.92285 9.12713V9.5505H7.92285V9.1003C7.92285 9.00239 7.93135 8.90468 7.94826 8.80824L7.96495 8.71298C8.06441 8.14558 8.33033 7.62057 8.7289 7.20467L8.74801 7.18472ZM11.3942 14.4928H10.1586V16H11.3942V14.4928Z" fill="#222222" fill-opacity="0.4"/>
</svg>
