<svg width="16" height="16" viewBox="0 0 16 16" fill="none" xmlns="http://www.w3.org/2000/svg">
<path d="M4 10H2C1.44772 10 1 10.4477 1 11V14C1 14.5523 1.44772 15 2 15H4C4.55228 15 5 14.5523 5 14V11C5 10.4477 4.55228 10 4 10Z" fill="black"/>
<path d="M9 6H7C6.44772 6 6 6.44772 6 7V14C6 14.5523 6.44772 15 7 15H9C9.55228 15 10 14.5523 10 14V7C10 6.44772 9.55228 6 9 6Z" fill="black"/>
<path d="M14 1H12C11.4477 1 11 1.44772 11 2V14C11 14.5523 11.4477 15 12 15H14C14.5523 15 15 14.5523 15 14V2C15 1.44772 14.5523 1 14 1Z" fill="black"/>
<path fill-rule="evenodd" clip-rule="evenodd" d="M0 14.5C0 14.3674 0.0526784 14.2402 0.146447 14.1464C0.240215 14.0527 0.367392 14 0.5 14H15.5C15.6326 14 15.7598 14.0527 15.8536 14.1464C15.9473 14.2402 16 14.3674 16 14.5C16 14.6326 15.9473 14.7598 15.8536 14.8536C15.7598 14.9473 15.6326 15 15.5 15H0.5C0.367392 15 0.240215 14.9473 0.146447 14.8536C0.0526784 14.7598 0 14.6326 0 14.5Z" fill="black"/>
</svg>
