<svg width="22" height="22" viewBox="0 0 22 22" fill="none" xmlns="http://www.w3.org/2000/svg">
<rect width="22" height="22" fill="#F1F2F6"/>
<rect width="22" height="22" fill="#F1F2F6"/>
<path fill-rule="evenodd" clip-rule="evenodd" d="M21 11C21 13.6522 19.9464 16.1957 18.0711 18.0711C16.1957 19.9464 13.6522 21 11 21C8.34784 21 5.8043 19.9464 3.92893 18.0711C2.05357 16.1957 1 13.6522 1 11C1 8.34784 2.05357 5.8043 3.92893 3.92893C5.8043 2.05357 8.34784 1 11 1C13.6522 1 16.1957 2.05357 18.0711 3.92893C19.9464 5.8043 21 8.34784 21 11ZM16.0375 7.2125C15.9482 7.12352 15.8419 7.05347 15.7249 7.00652C15.6079 6.95957 15.4827 6.9367 15.3567 6.93926C15.2306 6.94183 15.1064 6.96979 14.9914 7.02146C14.8765 7.07313 14.7731 7.14746 14.6875 7.24L10.3463 12.7712L7.73 10.1537C7.55228 9.98815 7.31722 9.898 7.07435 9.90228C6.83147 9.90657 6.59974 10.005 6.42797 10.1767C6.25621 10.3485 6.15782 10.5802 6.15353 10.8231C6.14925 11.066 6.2394 11.301 6.405 11.4788L9.7125 14.7875C9.8016 14.8764 9.90771 14.9465 10.0245 14.9936C10.1413 15.0406 10.2663 15.0637 10.3922 15.0613C10.5181 15.059 10.6422 15.0313 10.7571 14.98C10.8721 14.9286 10.9755 14.8547 11.0612 14.7625L16.0513 8.525C16.2214 8.34812 16.3153 8.11159 16.313 7.8662C16.3107 7.6208 16.2122 7.3861 16.0387 7.2125H16.0375Z" fill="#222222" fill-opacity="0.4"/>
</svg>
