<svg width="22" height="22" viewBox="0 0 22 22" fill="none" xmlns="http://www.w3.org/2000/svg">
<rect width="22" height="22" fill="#F1F2F6"/>
<path d="M11.5 20C9.62108 20 7.78435 19.4428 6.22209 18.399C4.65982 17.3551 3.44218 15.8714 2.72315 14.1355C2.00412 12.3996 1.81598 10.4895 2.18254 8.64665C2.5491 6.80383 3.45389 5.11109 4.78249 3.78249C6.11109 2.45389 7.80383 1.5491 9.64665 1.18254C11.4895 0.815985 13.3996 1.00412 15.1355 1.72315C16.8714 2.44218 18.3551 3.65982 19.399 5.22209C20.4428 6.78435 21 8.62108 21 10.5C21 13.0196 19.9991 15.4359 18.2175 17.2175C16.4359 18.9991 14.0196 20 11.5 20ZM11.5 2.35715C9.8895 2.35715 8.31516 2.83472 6.97607 3.72947C5.63699 4.62421 4.5933 5.89595 3.97698 7.38387C3.36067 8.87178 3.19942 10.509 3.51361 12.0886C3.8278 13.6682 4.60334 15.1191 5.74213 16.2579C6.88093 17.3967 8.33185 18.1722 9.91141 18.4864C11.491 18.8006 13.1282 18.6393 14.6161 18.023C16.104 17.4067 17.3758 16.363 18.2705 15.0239C19.1653 13.6848 19.6429 12.1105 19.6429 10.5C19.6429 8.34038 18.785 6.26922 17.2579 4.74213C15.7308 3.21505 13.6596 2.35715 11.5 2.35715Z" fill="#222222" fill-opacity="0.4"/>
<path d="M14.4938 14.375L11 10.8812V5H12.25V10.3625L15.375 13.4937L14.4938 14.375Z" fill="#222222" fill-opacity="0.4"/>
</svg>
