<svg width="22" height="22" viewBox="0 0 22 22" fill="none" xmlns="http://www.w3.org/2000/svg">
<path d="M14.1034 1H3C1.89543 1 1 1.89543 1 3V13.9252M21 11.8844V16.2381M1 13.9252V19C1 20.1046 1.89543 21 3 21H18.931M1 13.9252L4.97482 10.0044C5.75359 9.23625 7.00503 9.23626 7.7838 10.0044L11.8966 14.0612M18.931 21H19C20.1046 21 21 20.1046 21 19V16.2381M18.931 21L11.8966 14.0612M11.8966 14.0612L13.9403 12.0453C14.7191 11.2771 15.9705 11.2771 16.7493 12.0453L21 16.2381" stroke="white" stroke-width="2" stroke-linecap="round"/>
</svg>
